<?xml version="1.0" encoding="UTF-8"?>
<svg width="2000px" height="2149px" viewBox="0 0 2000 2149" version="1.1" xmlns="http://www.w3.org/2000/svg" xmlns:xlink="http://www.w3.org/1999/xlink">
    <!-- Generator: Sketch 53.2 (72643) - https://sketchapp.com -->
    <title>logotn copy 4</title>
    <desc>Created with Sketch.</desc>
    <g id="logotn-copy-4" stroke="none" stroke-width="1" fill="none" fill-rule="evenodd">
        <g id="Group" fill-rule="nonzero">
            <polygon id="Shape" fill="#F7738F" points="0 356.106153 1000 0 1000 2148.64573 152.750515 1678.43433"></polygon>
            <polygon id="Shape" fill="#43D6F8" transform="translate(1500.000000, 1074.322864) scale(-1, 1) translate(-1500.000000, -1074.322864) " points="1000 356.106153 2000 0 2000 2148.64573 1152.75051 1678.43433"></polygon>
        </g>
        <g id="Group" transform="translate(29.000000, 29.000000)" fill="#FFFFFF" fill-rule="nonzero">
            <path d="M965,0 L1930,343.568996 L1782.59575,1619.34297 L965,2073 L147.404247,1619.34297 L0,343.568996 L965,0 Z" id="Combined-Shape"></path>
        </g>
        <g id="Group" transform="translate(122.000000, 129.000000)" fill-rule="nonzero">
            <polygon id="Shape" fill="#F7738F" points="0 310.524566 872 0 872 1873.61908 133.198449 1463.59473"></polygon>
            <polygon id="Shape" fill="#43D6F8" transform="translate(1308.000000, 936.809538) scale(-1, 1) translate(-1308.000000, -936.809538) " points="872 310.524566 1744 0 1744 1873.61908 1005.19845 1463.59473"></polygon>
        </g>
        <path d="M1188,1156 L497,1156 L497,995 L1188,995 L1188,1156 Z M1400,1515 L824.376344,1515 C802.284068,1515 778.146572,1511.11347 751.963134,1503.34031 C725.779695,1495.56714 701.539922,1482.78252 679.243088,1464.98605 C656.946253,1447.18959 638.331744,1424.07499 623.399002,1395.64156 C608.466259,1367.20813 601,1332.33168 601,1291.01116 L601,715.390516 C601,704.344436 603.04555,693.912183 607.136713,684.093445 C611.227875,674.274707 616.853139,665.68344 624.012673,658.319386 C631.172207,650.955333 639.661241,645.227821 649.480031,641.136681 C659.29882,637.04554 669.935683,635 681.390937,635 L1400,635 L1400,794.553696 L760.554531,794.553696 L760.554531,1291.01116 C760.554531,1311.87598 766.077518,1327.83119 777.123656,1338.87727 C788.169794,1349.92335 804.329643,1355.4463 825.603687,1355.4463 L1400,1355.4463 L1400,1515 Z" id="E" fill="#FFFFFF" fill-rule="nonzero"></path>
    </g>
</svg>